<?xml version="1.0" encoding="utf-8"?>
<!-- Generator: Adobe Illustrator 15.0.0, SVG Export Plug-In . SVG Version: 6.00 Build 0)  -->
<!DOCTYPE svg PUBLIC "-//W3C//DTD SVG 1.1//EN" "http://www.w3.org/Graphics/SVG/1.1/DTD/svg11.dtd">
<svg version="1.1" id="Calque_1" xmlns="http://www.w3.org/2000/svg" xmlns:xlink="http://www.w3.org/1999/xlink" x="0px" y="0px"
	 width="330px" height="250px" viewBox="0 0 330 250" enable-background="new 0 0 330 250" xml:space="preserve">
<g>
	<g>
		<path fill="#FFFFFF" d="M307.339,120.625l-33.2-86.25l21.071-2.867L307.339,120.625z M284.222,40.337l7.504,19.489l-2.745-20.137
			L284.222,40.337z"/>
	</g>
	<g>
		<path fill="#FFFFFF" d="M55.567,215.264l-21.062,2.867l-12.139-89.117L55.567,215.264z M40.725,209.949l4.76-0.647l-7.504-19.499
			L40.725,209.949z"/>
	</g>
	<g>
		<path fill="#FFFFFF" d="M315.408,179.883l-163.105,22.213l157.853-60.779L315.408,179.883z M213.092,186.482l94.135-12.818
			l-3.033-22.254L213.092,186.482z"/>
	</g>
	<g>
		<path fill="#FFFFFF" d="M19.551,108.322l-5.253-38.567l163.116-22.212L19.551,108.322z M22.479,75.974l3.032,22.254l91.102-35.071
			L22.479,75.974z"/>
	</g>
	<g>
		<polygon fill="#FFFFFF" points="59.474,245.617 47.139,213.588 53.923,210.977 63.646,236.223 181.392,190.893 184.002,197.676 		
			"/>
	</g>
	<g>
		<polygon fill="#FFFFFF" points="26.787,160.713 5.664,105.875 21.226,99.883 23.836,106.666 15.059,110.049 33.57,158.103 		"/>
	</g>
	<g>
		<polygon fill="#FFFFFF" points="308.49,149.756 305.869,142.972 314.647,139.59 296.146,91.536 302.93,88.926 324.043,143.764 		
			"/>
	</g>
	<g>
		<polygon fill="#FFFFFF" points="148.314,58.746 145.703,51.963 270.242,4.021 282.577,36.051 275.783,38.662 266.069,13.417 		"/>
	</g>
	<g>
		<polygon fill="#FFFFFF" points="296.146,91.536 275.783,38.662 282.577,36.051 302.93,88.926 		"/>
	</g>
	<g>
		<polygon fill="#FFFFFF" points="184.002,197.676 181.392,190.893 305.869,142.972 308.49,149.756 		"/>
	</g>
	<g>
		
			<rect x="12.026" y="182.211" transform="matrix(0.3592 0.9333 -0.9333 0.3592 199.3 81.4266)" fill="#FFFFFF" width="56.656" height="7.268"/>
	</g>
	<g>
		
			<rect x="81.135" y="12.623" transform="matrix(0.3592 0.9333 -0.9333 0.3592 128.3471 -28.285)" fill="#FFFFFF" width="7.268" height="133.383"/>
	</g>
</g>
</svg>
