<?xml version="1.0" encoding="utf-8"?>
<!-- Generator: Adobe Illustrator 15.0.0, SVG Export Plug-In . SVG Version: 6.00 Build 0)  -->
<!DOCTYPE svg PUBLIC "-//W3C//DTD SVG 1.1//EN" "http://www.w3.org/Graphics/SVG/1.1/DTD/svg11.dtd">
<svg version="1.1" id="Calque_1" xmlns="http://www.w3.org/2000/svg" xmlns:xlink="http://www.w3.org/1999/xlink" x="0px" y="0px"
	 width="160px" height="160px" viewBox="0 0 160 160" enable-background="new 0 0 160 160" xml:space="preserve">
<g>
	<g>
		<path fill="#FFFFFF" d="M92.183,157.189H67.898c-2.492,0-4.513-2.026-4.513-4.513v-11.724c-2.217-0.605-4.399-1.333-6.513-2.171
			l-0.533-0.212l-1.406-0.589c-2.077-0.9-4.13-1.928-6.121-3.065l-8.29,8.29c-1.706,1.712-4.673,1.701-6.379,0l-17.171-17.171
			c-1.763-1.758-1.763-4.621,0-6.379l8.291-8.297c-1.133-1.979-2.161-4.037-3.071-6.135l-0.672-1.613
			c-0.936-2.357-1.686-4.596-2.295-6.823H7.496c-2.486,0-4.512-2.021-4.512-4.507V67.99c0-2.486,2.025-4.512,4.512-4.512h11.729
			c0.605-2.218,1.333-4.399,2.171-6.519l0.6-1.464c1.055-2.435,2.119-4.573,3.268-6.59l-8.291-8.292
			c-0.858-0.853-1.324-1.984-1.324-3.188s0.466-2.337,1.324-3.189L34.144,17.06c1.706-1.706,4.673-1.706,6.379,0l8.29,8.291
			c1.996-1.138,4.054-2.166,6.147-3.07l1.907-0.791c2.119-0.838,4.302-1.566,6.519-2.176V7.589c0-2.485,2.021-4.513,4.513-4.513
			h24.284c2.492,0,4.519,2.027,4.519,4.513v11.725c2.212,0.609,4.394,1.338,6.518,2.176l1.536,0.631
			c2.377,1.028,4.502,2.083,6.513,3.23l8.297-8.291c1.7-1.706,4.672-1.706,6.378,0l17.177,17.177
			c0.848,0.853,1.324,1.985,1.324,3.189s-0.477,2.336-1.324,3.188l-8.291,8.292c1.126,1.985,2.161,4.047,3.07,6.141l0.683,1.649
			c0.925,2.33,1.675,4.564,2.279,6.782h11.729c2.486,0,4.513,2.025,4.513,4.512v24.291c0,2.486-2.026,4.507-4.513,4.507H140.86
			c-0.604,2.202-1.328,4.383-2.171,6.513l-0.388,0.972l-2.719-0.371l2.444,1.007c-1.007,2.343-2.062,4.456-3.199,6.451l8.291,8.297
			c1.758,1.758,1.758,4.621,0,6.379l-17.177,17.171c-1.706,1.712-4.678,1.701-6.378,0l-8.297-8.29
			c-1.989,1.138-4.047,2.165-6.141,3.075l-1.654,0.688c-2.321,0.914-4.55,1.664-6.771,2.274v11.724
			C96.701,155.163,94.675,157.189,92.183,157.189z M68.679,151.896h22.728v-15.084l2.027-0.485c2.668-0.636,5.299-1.469,7.837-2.466
			l0.879-0.357l1.664,2.171l-1.127-2.392c2.833-1.235,5.283-2.514,7.613-3.944l1.785-1.097l10.668,10.669l16.066-16.065
			l-10.67-10.674l1.097-1.783c1.431-2.312,2.709-4.762,3.794-7.273l2.817,0.139l-2.445-1.013l0.264-0.646
			c1.102-2.787,1.927-5.418,2.559-8.064l0.475-2.036h15.1V68.771h-15.1l-0.475-2.037c-0.632-2.646-1.457-5.277-2.466-7.826
			l-0.609-1.473c-1.204-2.792-2.482-5.242-3.913-7.562l-1.097-1.778l10.67-10.669l-16.066-16.071l-10.668,10.669l-1.785-1.097
			c-2.33-1.436-4.78-2.708-7.272-3.787l-0.848-0.362l0.352-2.714l-0.92,2.481c-2.874-1.138-5.51-1.97-8.167-2.601l-2.038-0.479V8.37
			H68.679v15.095l-2.037,0.479c-2.662,0.636-5.299,1.463-7.82,2.466l-1.468-2.265l0.583,2.621l-1.369-2.294l0.729,2.563
			c-2.734,1.183-5.181,2.455-7.512,3.891l-1.783,1.097L37.333,21.354L21.262,37.426l10.675,10.669l-1.102,1.778
			c-1.432,2.336-2.709,4.786-3.788,7.277l-2.817-0.135l2.439,1.02l-0.217,0.532c-1.133,2.868-1.964,5.505-2.601,8.173l-0.48,2.031
			H8.277v22.724h15.094l0.48,2.031c0.637,2.667,1.463,5.299,2.467,7.836l-2.089,1.892l2.444-1.013l0.259,0.61
			c1.204,2.775,2.477,5.226,3.902,7.537l1.102,1.783l-10.675,10.674l16.071,16.065l10.669-10.669l1.783,1.097
			c2.326,1.431,4.777,2.709,7.278,3.794l-0.486,2.673l1.045-2.437l-0.264,2.756l0.987-2.456c2.997,1.189,5.64,2.022,8.302,2.658
			l2.031,0.485V151.896z"/>
	</g>
	<g>
		<path fill="#FFFFFF" d="M80.046,112.373c-17.781,0-32.246-14.464-32.246-32.24s14.465-32.234,32.246-32.234
			c17.771,0,32.234,14.458,32.234,32.234S97.817,112.373,80.046,112.373z M80.046,53.191c-14.862,0-26.952,12.085-26.952,26.941
			s12.09,26.947,26.952,26.947c14.855,0,26.941-12.091,26.941-26.947S94.901,53.191,80.046,53.191z"/>
	</g>
</g>
</svg>
