<?xml version="1.0" encoding="utf-8"?>
<!-- Generator: Adobe Illustrator 15.0.0, SVG Export Plug-In . SVG Version: 6.00 Build 0)  -->
<!DOCTYPE svg PUBLIC "-//W3C//DTD SVG 1.1//EN" "http://www.w3.org/Graphics/SVG/1.1/DTD/svg11.dtd">
<svg version="1.1" id="Calque_1" xmlns="http://www.w3.org/2000/svg" xmlns:xlink="http://www.w3.org/1999/xlink" x="0px" y="0px"
	 width="100px" height="135px" viewBox="0 0 100 135" enable-background="new 0 0 100 135" xml:space="preserve">
<g>
	<g>
		<path fill="#FFFFFF" d="M69.418,79.223c-8.562,0-15.926-3.016-21.871-8.965c-4.981-4.982-11.16-7.507-18.355-7.507
			c-12.614,0-24.188,7.73-24.3,7.808L1,73.186V8.971l1.168-0.734C2.703,7.9,15.438,0,29.576,0c8.562,0,15.791,2.89,21.492,8.586
			c4.729,4.729,10.775,7.127,17.971,7.127c12.663,0,24.635-7.399,24.752-7.477l3.814-2.384l0.004,63.962l-1.094,0.744
			C95.995,70.909,83.595,79.223,69.418,79.223z M29.191,57.77c8.566,0,15.928,3.016,21.877,8.965
			c4.982,4.982,11.154,7.507,18.35,7.507c10.405,0,20.039-5.221,23.21-7.122V14.55c-4.902,2.442-13.923,6.144-23.589,6.144
			c-8.567,0-15.801-2.889-21.492-8.586c-4.729-4.729-10.78-7.127-17.971-7.127c-10.372,0-20.276,4.962-23.595,6.801v52.365
			C10.817,61.574,19.598,57.77,29.191,57.77z"/>
	</g>
	<g>
		<rect x="1" y="67.756" fill="#FFFFFF" width="4.981" height="66.118"/>
	</g>
</g>
</svg>
